<svg width="512" height="512" viewBox="0 0 512 512" fill="none" xmlns="http://www.w3.org/2000/svg">
  <!-- 배경 그라데이션 -->
  <defs>
    <linearGradient id="bg" x1="0%" y1="0%" x2="100%" y2="100%">
      <stop offset="0%" style="stop-color:#3b82f6;stop-opacity:1" />
      <stop offset="100%" style="stop-color:#8b5cf6;stop-opacity:1" />
    </linearGradient>
  </defs>
  
  <!-- 배경 원 -->
  <circle cx="256" cy="256" r="256" fill="url(#bg)"/>
  
  <!-- 하트 아이콘 -->
  <path d="M256 150C230 150 210 170 210 196C210 222 256 300 256 300S302 222 302 196C302 170 282 150 256 150Z" fill="white" opacity="0.9"/>
  
  <!-- 뇌 아이콘 (두뇌 훈련을 상징) -->
  <circle cx="180" cy="200" r="25" fill="white" opacity="0.7"/>
  <circle cx="220" cy="180" r="20" fill="white" opacity="0.7"/>
  <circle cx="260" cy="185" r="18" fill="white" opacity="0.7"/>
  <circle cx="300" cy="200" r="22" fill="white" opacity="0.7"/>
  <circle cx="332" cy="220" r="25" fill="white" opacity="0.7"/>
  
  <!-- 채팅 버블 (AI 챗봇을 상징) -->
  <rect x="160" y="320" width="120" height="80" rx="20" fill="white" opacity="0.8"/>
  <path d="M200 400L220 420L240 400" fill="white" opacity="0.8"/>
  
  <!-- 게임 컨트롤러 (게임을 상징) -->
  <rect x="280" y="320" width="100" height="60" rx="15" fill="white" opacity="0.8"/>
  <circle cx="300" cy="340" r="8" fill="#3b82f6"/>
  <circle cx="320" cy="340" r="8" fill="#8b5cf6"/>
  <rect x="340" y="335" width="10" height="10" fill="#3b82f6"/>
  <rect x="355" y="335" width="10" height="10" fill="#8b5cf6"/>
</svg>